<?xml version="1.0" standalone="no"?>
<!DOCTYPE svg PUBLIC "-//W3C//DTD SVG 20010904//EN"
 "http://www.w3.org/TR/2001/REC-SVG-20010904/DTD/svg10.dtd">
<svg version="1.0" xmlns="http://www.w3.org/2000/svg"
 width="700.000000pt" height="700.000000pt" viewBox="0 0 700.000000 700.000000"
 preserveAspectRatio="xMidYMid meet">
<metadata>
Created by potrace 1.11, written by Peter Selinger 2001-2013
</metadata>
<g transform="translate(0.000000,700.000000) scale(0.100000,-0.100000)"
fill="#000000" stroke="none">
<path d="M3270 6989 c-1078 -68 -2072 -642 -2678 -1546 -418 -623 -627 -1390
-583 -2129 13 -212 22 -286 56 -470 171 -912 713 -1730 1492 -2252 623 -418
1390 -627 2129 -583 212 13 286 22 470 56 912 171 1730 713 2252 1492 418 623
627 1390 583 2129 -13 212 -22 286 -56 470 -263 1400 -1378 2516 -2779 2779
-175 32 -261 43 -451 55 -177 11 -250 11 -435 -1z m1260 -1602 c111 -41 196
-159 248 -345 25 -92 27 -108 26 -312 0 -178 -4 -235 -23 -335 -12 -66 -24
-134 -27 -150 -6 -30 -4 -31 53 -49 301 -92 541 -224 691 -380 85 -89 125
-158 144 -249 33 -156 -78 -348 -290 -500 -105 -76 -293 -171 -459 -233 -103
-38 -132 -52 -127 -64 3 -8 17 -76 30 -150 58 -323 37 -606 -59 -796 -38 -75
-119 -158 -185 -191 -53 -26 -66 -28 -177 -28 -98 0 -134 4 -195 23 -173 55
-360 168 -558 336 -130 112 -100 113 -238 -7 -146 -127 -292 -220 -456 -290
-125 -54 -204 -70 -323 -65 -85 3 -109 8 -157 31 -226 111 -315 460 -237 934
11 67 24 137 30 155 14 52 12 56 -45 72 -84 25 -273 103 -356 147 -261 141
-420 295 -470 456 -25 82 -25 134 0 214 70 227 345 432 765 570 98 33 125 45
120 57 -18 48 -57 277 -67 399 -24 289 29 519 148 652 171 191 489 154 867
-102 71 -47 207 -156 263 -209 l40 -38 25 26 c45 49 224 191 319 254 271 178
500 234 680 167z"/>
<path d="M4270 5214 c-87 -19 -212 -80 -345 -169 -110 -74 -285 -218 -285
-235 0 -5 27 -40 61 -77 33 -37 114 -138 179 -223 l118 -156 173 -22 c96 -12
225 -33 287 -45 l112 -23 10 36 c41 158 63 480 41 618 -24 153 -75 251 -151
290 -51 25 -104 27 -200 6z"/>
<path d="M2517 5198 c-99 -62 -147 -212 -148 -462 -1 -78 4 -172 11 -211 20
-127 53 -265 63 -265 5 0 52 9 105 20 54 10 180 30 281 44 101 14 184 26 186
28 1 2 47 64 103 139 55 74 136 175 178 224 l78 89 -70 64 c-154 142 -349 267
-496 320 -52 18 -100 27 -163 29 -81 4 -94 2 -128 -19z"/>
<path d="M3449 4618 c-108 -127 -199 -237 -199 -241 0 -3 113 -5 250 -5 l251
-1 -53 67 c-81 104 -191 232 -198 232 -3 0 -26 -24 -51 -52z"/>
<path d="M3210 4191 l-95 -6 -73 -115 c-116 -185 -178 -289 -251 -431 l-69
-133 58 -115 c69 -138 178 -327 268 -468 l66 -101 136 -7 c74 -4 249 -5 389
-3 294 6 248 -13 350 150 64 102 158 268 254 448 l56 106 -85 154 c-47 85
-137 236 -201 336 l-115 181 -141 6 c-156 8 -399 6 -547 -2z m451 -342 c71
-33 155 -117 188 -188 23 -49 26 -69 26 -161 0 -92 -3 -112 -26 -161 -33 -71
-117 -155 -188 -188 -49 -23 -69 -26 -161 -26 -92 0 -112 3 -161 26 -71 33
-155 117 -188 188 -37 79 -42 212 -11 293 37 100 117 182 218 225 49 20 71 23
152 21 78 -3 105 -8 151 -29z"/>
<path d="M2735 4135 c-182 -31 -245 -45 -245 -55 0 -8 65 -186 110 -302 l23
-58 67 123 c36 67 92 164 124 215 32 51 56 94 55 96 -2 1 -62 -7 -134 -19z"/>
<path d="M4130 4151 c0 -3 9 -19 21 -36 35 -53 131 -216 179 -307 l47 -88 38
92 c37 91 95 255 95 269 0 4 -35 15 -77 24 -104 24 -303 54 -303 46z"/>
<path d="M2145 3991 c-246 -91 -383 -169 -496 -281 -82 -81 -112 -136 -111
-206 0 -68 27 -117 109 -205 109 -115 267 -210 492 -294 178 -67 163 -68 185
12 25 85 61 181 133 350 l56 133 -65 157 c-36 87 -82 209 -104 271 -27 76 -44
112 -54 112 -8 -1 -73 -22 -145 -49z"/>
<path d="M4665 3933 c-21 -60 -66 -177 -101 -260 -35 -84 -64 -160 -64 -168 0
-9 11 -37 24 -63 25 -50 115 -275 160 -404 l27 -76 36 10 c60 16 208 75 297
117 185 89 354 228 399 330 44 99 17 183 -92 291 -78 78 -148 125 -282 192
-101 49 -326 138 -353 138 -9 0 -27 -38 -51 -107z"/>
<path d="M4330 3188 c-25 -51 -79 -148 -121 -217 -42 -70 -76 -127 -75 -128 2
-2 157 24 283 48 l112 21 -25 67 c-56 149 -118 301 -123 301 -3 -1 -26 -42
-51 -92z"/>
<path d="M2577 3183 c-35 -84 -97 -259 -97 -273 0 -10 380 -72 389 -64 2 2
-28 52 -66 111 -38 59 -94 154 -124 210 -30 57 -57 103 -60 103 -3 0 -22 -39
-42 -87z"/>
<path d="M4475 2713 c-60 -12 -190 -33 -287 -45 l-177 -22 -95 -126 c-53 -69
-134 -171 -181 -226 -47 -54 -83 -103 -82 -109 5 -15 191 -169 278 -230 92
-65 233 -137 314 -160 84 -24 183 -23 232 2 111 57 172 266 160 548 -5 111
-40 386 -50 390 -1 0 -51 -10 -112 -22z"/>
<path d="M2427 2703 c-7 -23 -32 -157 -48 -253 -16 -97 -16 -317 0 -400 23
-119 73 -211 135 -250 147 -90 519 62 809 331 l57 54 -81 90 c-44 50 -122 144
-172 209 -51 65 -99 127 -107 137 -12 14 -41 20 -135 29 -102 10 -335 46 -427
66 -20 5 -27 2 -31 -13z"/>
<path d="M3260 2614 c0 -6 139 -176 202 -248 l44 -49 60 69 c59 68 163 197
178 222 6 9 -45 12 -238 12 -135 0 -246 -3 -246 -6z"/>
</g>
</svg>
